<svg xmlns="http://www.w3.org/2000/svg" viewBox="0 0 24 22.87"><defs><style>.cls-1{fill:#fff;}</style></defs><title>資產 1</title><g id="圖層_2" data-name="圖層 2"><g id="圖層_1-2" data-name="圖層 1"><path class="cls-1" d="M24,9.74C24,4.37,18.62,0,12,0S0,4.37,0,9.74c0,4.81,4.27,8.85,10,9.61.39.08.92.26,1.06.59a2.47,2.47,0,0,1,0,1.08L11,22c-.05.3-.24,1.19,1,.65a38.73,38.73,0,0,0,9.43-7A8.66,8.66,0,0,0,24,9.74ZM5,7.14a.23.23,0,0,1,.23.23v4.15H7.53a.23.23,0,0,1,.23.23v.84a.23.23,0,0,1-.23.23H4.17A.23.23,0,0,1,4,12.77H4a.23.23,0,0,1-.07-.16V7.38a.23.23,0,0,1,.23-.23Zm15,0a.23.23,0,0,1,.23.23v.84a.23.23,0,0,1-.23.23H17.72v.88H20a.23.23,0,0,1,.23.23v.84a.23.23,0,0,1-.23.23H17.72v.88H20a.23.23,0,0,1,.23.23v.84a.23.23,0,0,1-.23.23H16.64a.23.23,0,0,1-.16-.06h0a.23.23,0,0,1-.07-.16V7.38a.23.23,0,0,1,.07-.16h0a.24.24,0,0,1,.16-.07Zm-10.44,0a.23.23,0,0,1,.23.23v5.23a.23.23,0,0,1-.23.23H8.72a.23.23,0,0,1-.23-.23V7.38a.23.23,0,0,1,.23-.23Zm2.13,0h.18l0,0,2.4,3.24V7.38a.23.23,0,0,1,.23-.23h.84a.23.23,0,0,1,.23.23v5.23a.23.23,0,0,1-.23.23h-1l-.06-.06L11.92,9.5v3.11a.23.23,0,0,1-.23.23h-.84a.23.23,0,0,1-.23-.23V7.38a.23.23,0,0,1,.23-.23Z"/></g></g></svg>