<svg xmlns="http://www.w3.org/2000/svg" viewBox="0 0 301.81 301.81"><defs><style>.cls-1{fill:#fff;}</style></defs><title>資產 4</title><g id="圖層_2" data-name="圖層 2"><g id="圖層_1-2" data-name="圖層 1"><path class="cls-1" d="M219.64,73.76c0-4.84-3.78-7.22-10.74-7.22H194.74V81.06h14.17C215.86,81.06,219.64,78.6,219.64,73.76Z"/><polygon class="cls-1" points="131.82 69.8 122.05 93.38 141.59 93.38 131.82 69.8"/><path class="cls-1" d="M222.72,99.1c0-5.19-4-7.66-11.35-7.66H194.74v15.22h16.63C218.76,106.67,222.72,104.38,222.72,99.1Z"/><path class="cls-1" d="M0,0V301.81H301.81V0ZM26.13,86.6C26.13,68,40.39,54.75,60,54.75c10.82,0,19.8,3.7,25.78,10.65l-9.15,8.45a20.84,20.84,0,0,0-15.93-7c-12,0-20.15,8-20.15,19.71,0,11.53,8.18,19.71,20,19.71a22.64,22.64,0,0,0,11.09-2.64v-18h13v25c-6.78,5.1-16.1,7.83-24.9,7.83C40.39,118.46,26.13,105.17,26.13,86.6ZM76.82,246.46c-9.77,0-19.62-2.9-25.08-7.13l4.84-10.74A36.23,36.23,0,0,0,76.91,235c8.45,0,11.88-2.82,11.88-6.6,0-11.53-35.81-3.61-35.81-26.49,0-10.47,8.45-19.18,26-19.18,7.74,0,15.66,1.85,21.38,5.46L95.91,199a34.79,34.79,0,0,0-17.07-4.84c-8.45,0-11.7,3.17-11.7,7,0,11.35,35.81,3.52,35.81,26.14C103,237.66,94.42,246.46,76.82,246.46ZM97.41,117.4l27.46-61.6h14.08l27.54,61.6h-15l-5.46-13.2h-28.6L112,117.4Zm53.24,116.91a19.63,19.63,0,0,0,15.49-7.3l9.15,8.45c-5.81,7.13-14.7,11-25.43,11-19.1,0-33.35-13.29-33.35-31.85s14.26-31.86,33.44-31.86c10.65,0,19.54,3.87,25.34,10.91l-9.15,8.45a19.82,19.82,0,0,0-15.49-7.22c-11.53,0-19.71,8.1-19.71,19.71S139.12,234.32,150.65,234.32ZM180.57,55.8h30.1c15.4,0,23.32,6.42,23.32,16a14.81,14.81,0,0,1-8.18,13.55c6.86,2.2,11.26,7.48,11.26,15.22,0,10.65-8.45,16.81-24.64,16.81H180.57Zm44.17,189.6H210.66l-26.58-61.6h15.4l18.74,44,19-44h14.17Zm45.06-128H255.55V55.8H269.8Z"/></g></g></svg>